<svg width="255" height="256" viewBox="0 0 255 256" fill="none" xmlns="http://www.w3.org/2000/svg">
<path d="M254.038 126.529C254.038 196.409 197.17 253.057 127.019 253.057C56.8684 253.057 0 196.409 0 126.529C0 56.6488 56.8684 0 127.019 0C197.17 0 254.038 56.6488 254.038 126.529ZM44.2925 126.529C44.2925 172.041 81.3305 208.936 127.019 208.936C172.708 208.936 209.746 172.041 209.746 126.529C209.746 81.0165 172.708 44.1215 127.019 44.1215C81.3305 44.1215 44.2925 81.0165 44.2925 126.529Z" fill="#20894E"/>
<rect x="208.919" y="136.337" width="45.1188" height="119.663" fill="#20894E"/>
<path d="M0 0H40.6213H122.499L40.6213 41.256V139.636L0 127.5L0 0Z" fill="#20894E"/>
</svg>
