<svg width="732" height="732" viewBox="0 0 732 732" fill="none" xmlns="http://www.w3.org/2000/svg">
<path d="M0 0H241.56C302.201 0 351.36 49.1591 351.36 109.8V351.36H109.8C49.159 351.36 0 302.201 0 241.56V0Z" fill="#20894E"/>
<path d="M58.5596 673.44L58.5596 519.72C58.5596 459.08 107.719 409.92 168.36 409.92L322.08 409.92L322.08 563.64C322.08 624.281 272.92 673.44 212.28 673.44L58.5596 673.44Z" fill="#00543A"/>
<path d="M732 732L490.44 732C429.799 732 380.64 682.841 380.64 622.2L380.64 380.64L622.2 380.64C682.841 380.64 732 429.799 732 490.44L732 732Z" fill="#20894E"/>
<path d="M673.44 58.5596L673.44 212.28C673.44 272.92 624.281 322.08 563.64 322.08L409.92 322.08L409.92 168.36C409.92 107.719 459.08 58.5596 519.72 58.5596L673.44 58.5596Z" fill="#00543A"/>
</svg>
